<svg width="64" height="64" viewBox="0 0 64 64" fill="none" xmlns="http://www.w3.org/2000/svg"><path fill-rule="evenodd" clip-rule="evenodd" d="M11.2684 10.1186C10.5396 11.549 10.5396 13.4215 10.5396 17.1665V20.0525C10.5396 23.7974 10.5396 25.6699 11.2684 27.1003C11.9095 28.3585 12.9324 29.3815 14.1906 30.0226C14.8585 30.3629 15.6228 30.5443 16.6291 30.641L16.6024 33.1092C16.5816 35.0196 18.8973 35.9835 20.2382 34.6226L24.0524 30.7514H28.7238C32.4688 30.7514 34.3413 30.7514 35.7717 30.0226C37.0299 29.3815 38.0528 28.3585 38.6939 27.1003C39.4228 25.6699 39.4228 23.7974 39.4228 20.0525V17.1665C39.4228 13.4215 39.4228 11.549 38.6939 10.1186C38.0528 8.8604 37.0299 7.83744 35.7717 7.19635C34.3413 6.46753 32.4688 6.46753 28.7238 6.46753H21.2385C17.4935 6.46753 15.621 6.46753 14.1906 7.19635C12.9324 7.83744 11.9095 8.8604 11.2684 10.1186Z" fill="#E6C0FF"/><mask id="path-2-outside-1_8083_81927" maskUnits="userSpaceOnUse" x="21.2056" y="10.3572" width="35" height="35" fill="black"><rect fill="white" x="21.2056" y="10.3572" width="35" height="35"/><path fill-rule="evenodd" clip-rule="evenodd" d="M52.4767 17.0083C53.2056 18.4387 53.2056 20.3111 53.2056 24.0561V26.9421C53.2056 30.6871 53.2056 32.5596 52.4767 33.99C51.8357 35.2482 50.8127 36.2711 49.5545 36.9122C48.8866 37.2525 48.1223 37.434 47.116 37.5307L47.1428 39.9989C47.1635 41.9092 44.8478 42.8731 43.5069 41.5122L39.6928 37.6411H35.0213C31.2763 37.6411 29.4038 37.6411 27.9734 36.9122C26.7152 36.2711 25.6923 35.2482 25.0512 33.99C24.3224 32.5596 24.3224 30.6871 24.3224 26.9421V24.0561C24.3224 20.3111 24.3224 18.4387 25.0512 17.0083C25.6923 15.75 26.7152 14.7271 27.9734 14.086C29.4038 13.3572 31.2763 13.3572 35.0213 13.3572H42.5066C46.2516 13.3572 48.1241 13.3572 49.5545 14.086C50.8127 14.7271 51.8357 15.75 52.4767 17.0083Z"/></mask><path fill-rule="evenodd" clip-rule="evenodd" d="M52.4767 17.0083C53.2056 18.4387 53.2056 20.3111 53.2056 24.0561V26.9421C53.2056 30.6871 53.2056 32.5596 52.4767 33.99C51.8357 35.2482 50.8127 36.2711 49.5545 36.9122C48.8866 37.2525 48.1223 37.434 47.116 37.5307L47.1428 39.9989C47.1635 41.9092 44.8478 42.8731 43.5069 41.5122L39.6928 37.6411H35.0213C31.2763 37.6411 29.4038 37.6411 27.9734 36.9122C26.7152 36.2711 25.6923 35.2482 25.0512 33.99C24.3224 32.5596 24.3224 30.6871 24.3224 26.9421V24.0561C24.3224 20.3111 24.3224 18.4387 25.0512 17.0083C25.6923 15.75 26.7152 14.7271 27.9734 14.086C29.4038 13.3572 31.2763 13.3572 35.0213 13.3572H42.5066C46.2516 13.3572 48.1241 13.3572 49.5545 14.086C50.8127 14.7271 51.8357 15.75 52.4767 17.0083Z" fill="#CE82FF"/><path d="M52.4767 17.0083L54.5478 15.953L52.4767 17.0083ZM52.4767 33.99L50.4057 32.9347L52.4767 33.99ZM49.5545 36.9122L50.6097 38.9833H50.6097L49.5545 36.9122ZM47.116 37.5307L44.7917 37.5559L44.7686 35.4212L46.8936 35.2169L47.116 37.5307ZM47.1428 39.9989L44.8185 40.0241L47.1428 39.9989ZM43.5069 41.5122L41.8512 43.1436H41.8512L43.5069 41.5122ZM39.6928 37.6411V35.3167H40.6656L41.3485 36.0097L39.6928 37.6411ZM27.9734 36.9122L29.0287 34.8412L27.9734 36.9122ZM25.0512 33.99L27.1222 32.9347L25.0512 33.99ZM25.0512 17.0083L27.1222 18.0635L25.0512 17.0083ZM27.9734 14.086L29.0287 16.157L27.9734 14.086ZM49.5545 14.086L50.6097 12.015L49.5545 14.086ZM50.8812 24.0561C50.8812 22.1453 50.8794 20.8519 50.7978 19.8535C50.7185 18.8822 50.5753 18.3964 50.4057 18.0635L54.5478 15.953C55.107 17.0505 55.3283 18.2162 55.4311 19.4749C55.5317 20.7066 55.5299 22.222 55.5299 24.0561H50.8812ZM50.8812 26.9421V24.0561H55.5299V26.9421H50.8812ZM50.4057 32.9347C50.5753 32.6018 50.7185 32.116 50.7978 31.1447C50.8794 30.1463 50.8812 28.8529 50.8812 26.9421H55.5299C55.5299 28.7762 55.5317 30.2916 55.4311 31.5233C55.3283 32.7821 55.107 33.9477 54.5478 35.0452L50.4057 32.9347ZM48.4992 34.8412C49.3201 34.423 49.9875 33.7556 50.4057 32.9347L54.5478 35.0452C53.6838 36.7408 52.3053 38.1193 50.6097 38.9833L48.4992 34.8412ZM46.8936 35.2169C47.7438 35.1353 48.1892 34.9992 48.4992 34.8412L50.6097 38.9833C49.584 39.5059 48.5008 39.7327 47.3383 39.8444L46.8936 35.2169ZM44.8185 40.0241L44.7917 37.5559L49.4402 37.5054L49.467 39.9736L44.8185 40.0241ZM45.1627 39.8809C45.1632 39.8814 45.1513 39.8697 45.1258 39.8563C45.1008 39.8433 45.073 39.834 45.0456 39.8292C44.9932 39.82 44.9592 39.8293 44.9423 39.8364C44.9253 39.8434 44.8947 39.861 44.8644 39.9046C44.8484 39.9275 44.8354 39.9538 44.8271 39.9806C44.8186 40.0082 44.8185 40.0248 44.8185 40.0241L49.467 39.9736C49.5104 43.9752 44.6599 45.9942 41.8512 43.1436L45.1627 39.8809ZM41.3485 36.0097L45.1627 39.8809L41.8512 43.1436L38.037 39.2724L41.3485 36.0097ZM35.0213 35.3167H39.6928V39.9654H35.0213V35.3167ZM29.0287 34.8412C29.3616 35.0108 29.8474 35.1539 30.8187 35.2333C31.8171 35.3149 33.1105 35.3167 35.0213 35.3167V39.9654C33.1872 39.9654 31.6718 39.9672 30.4401 39.8666C29.1813 39.7638 28.0157 39.5425 26.9182 38.9833L29.0287 34.8412ZM27.1222 32.9347C27.5405 33.7556 28.2078 34.423 29.0287 34.8412L26.9182 38.9833C25.2226 38.1193 23.8441 36.7408 22.9802 35.0452L27.1222 32.9347ZM26.6467 26.9421C26.6467 28.8529 26.6485 30.1463 26.7301 31.1447C26.8095 32.116 26.9526 32.6018 27.1222 32.9347L22.9802 35.0452C22.421 33.9477 22.1997 32.7821 22.0968 31.5233C21.9962 30.2916 21.998 28.7762 21.998 26.9421H26.6467ZM26.6467 24.0561V26.9421H21.998V24.0561H26.6467ZM27.1222 18.0635C26.9526 18.3964 26.8095 18.8822 26.7301 19.8535C26.6485 20.8519 26.6467 22.1453 26.6467 24.0561H21.998C21.998 22.222 21.9962 20.7066 22.0968 19.4749C22.1997 18.2162 22.421 17.0505 22.9802 15.953L27.1222 18.0635ZM29.0287 16.157C28.2078 16.5753 27.5405 17.2426 27.1222 18.0635L22.9802 15.953C23.8441 14.2574 25.2226 12.8789 26.9182 12.015L29.0287 16.157ZM35.0213 15.6815C33.1105 15.6815 31.8171 15.6834 30.8187 15.7649C29.8474 15.8443 29.3616 15.9874 29.0287 16.157L26.9182 12.015C28.0157 11.4558 29.1813 11.2345 30.4401 11.1316C31.6718 11.031 33.1872 11.0328 35.0213 11.0328V15.6815ZM42.5066 15.6815H35.0213V11.0328H42.5066V15.6815ZM48.4992 16.157C48.1663 15.9874 47.6805 15.8443 46.7092 15.7649C45.7108 15.6834 44.4175 15.6815 42.5066 15.6815V11.0328C44.3408 11.0328 45.8561 11.031 47.0878 11.1316C48.3466 11.2345 49.5122 11.4558 50.6097 12.015L48.4992 16.157ZM50.4057 18.0635C49.9875 17.2426 49.3201 16.5753 48.4992 16.157L50.6097 12.015C52.3053 12.8789 53.6838 14.2574 54.5478 15.953L50.4057 18.0635Z" fill="white" mask="url(#path-2-outside-1_8083_81927)"/><path d="M30.617 23.1493V21.061C30.617 20.3921 30.6471 20.2313 30.7309 20.0696C30.7816 19.9717 30.847 19.9041 30.941 19.8522C31.0958 19.7668 31.2492 19.7362 31.8949 19.7362H34.7442C35.5467 19.7362 36.1973 19.0672 36.1973 18.242C36.1973 17.4167 35.5467 16.7477 34.7442 16.7477H31.8949C30.8091 16.7477 30.2009 16.8689 29.5665 17.2191C28.9662 17.5505 28.4867 18.0455 28.1661 18.6643C27.8279 19.3171 27.7109 19.9424 27.7109 21.061V23.1493C27.7109 23.9745 28.3614 24.6436 29.1639 24.6436C29.9664 24.6436 30.617 23.9745 30.617 23.1493Z" fill="#E6C0FF"/></svg>