<svg width="64" height="64" viewBox="0 0 64 64" fill="none" xmlns="http://www.w3.org/2000/svg"><rect x="28.7078" y="6.71471" width="29.7005" height="36.2097" rx="5.54392" transform="rotate(20 28.7078 6.71471)" fill="#1CB0F6" stroke="white" stroke-width="2.36158"/><mask id="path-2-outside-1_8083_81936" maskUnits="userSpaceOnUse" x="9.4375" y="5.22192" width="33" height="40" fill="black"><rect fill="white" x="9.4375" y="5.22192" width="33" height="40"/><path d="M12.4375 13.8528C12.4375 10.7429 14.9585 8.22192 18.0683 8.22192H34.1455C37.2554 8.22192 39.7764 10.7429 39.7764 13.8528V36.4392C39.7764 39.5491 37.2554 42.0701 34.1456 42.0701H18.0684C14.9585 42.0701 12.4375 39.5491 12.4375 36.4392V13.8528Z"/></mask><path d="M12.4375 13.8528C12.4375 10.7429 14.9585 8.22192 18.0683 8.22192H34.1455C37.2554 8.22192 39.7764 10.7429 39.7764 13.8528V36.4392C39.7764 39.5491 37.2554 42.0701 34.1456 42.0701H18.0684C14.9585 42.0701 12.4375 39.5491 12.4375 36.4392V13.8528Z" fill="#CE82FF"/><path d="M18.0683 10.5835H34.1455V5.86034H18.0683V10.5835ZM37.4148 13.8528V36.4392H42.138V13.8528H37.4148ZM34.1456 39.7085H18.0684V44.4317H34.1456V39.7085ZM14.7991 36.4392V13.8528H10.0759V36.4392H14.7991ZM18.0684 39.7085C16.2628 39.7085 14.7991 38.2448 14.7991 36.4392H10.0759C10.0759 40.8533 13.6543 44.4317 18.0684 44.4317V39.7085ZM37.4148 36.4392C37.4148 38.2448 35.9511 39.7085 34.1456 39.7085V44.4317C38.5597 44.4317 42.138 40.8533 42.138 36.4392H37.4148ZM34.1455 10.5835C35.9511 10.5835 37.4148 12.0472 37.4148 13.8528H42.138C42.138 9.43867 38.5596 5.86034 34.1455 5.86034V10.5835ZM18.0683 5.86034C13.6543 5.86034 10.0759 9.43867 10.0759 13.8528H14.7991C14.7991 12.0472 16.2628 10.5835 18.0683 10.5835V5.86034Z" fill="white" mask="url(#path-2-outside-1_8083_81936)"/><path d="M12.4375 13.8547C12.4375 10.7449 14.9585 8.22388 18.0683 8.22388L34.1455 8.22388C37.2554 8.22388 39.7764 10.7449 39.7764 13.8547V36.4412C39.7764 39.551 37.2554 42.072 34.1456 42.072H18.0684C14.9585 42.072 12.4375 39.551 12.4375 36.4412L12.4375 13.8547Z" fill="#84D8FF"/><mask id="mask0_8083_81936" style="mask-type:alpha" maskUnits="userSpaceOnUse" x="12" y="8" width="28" height="35"><path d="M12.4375 13.8528C12.4375 10.7429 14.9585 8.22192 18.0683 8.22192L34.1455 8.22192C37.2554 8.22192 39.7764 10.7429 39.7764 13.8528V36.4392C39.7764 39.5491 37.2554 42.0701 34.1456 42.0701H18.0684C14.9585 42.0701 12.4375 39.5491 12.4375 36.4392L12.4375 13.8528Z" fill="#CE82FF"/></mask><g mask="url(#mask0_8083_81936)"><rect opacity="0.3" width="7.98938" height="40.0852" transform="matrix(-0.69314 -0.720803 -0.720802 0.693141 43.8447 15.7396)" fill="white"/><rect opacity="0.3" width="7.0633" height="20.0362" transform="matrix(-0.69314 -0.720803 -0.720802 0.693141 45.9907 33.5135)" fill="white"/></g><path d="M19.228 31.3352C19.228 32.3268 20.0308 32.9643 20.9043 32.9643C21.6599 32.9643 22.2737 32.5157 22.5334 31.7365L23.1709 29.7769H28.9082L29.5692 31.7365C29.829 32.5157 30.4428 32.9643 31.1983 32.9643C32.0719 32.9643 32.8747 32.3268 32.8747 31.3352C32.8747 31.0991 32.8274 30.863 32.7566 30.6741L28.4832 18.6566C28.0346 17.3816 27.3027 16.6261 26.075 16.6261C24.8472 16.6261 24.1389 17.3816 23.6903 18.6566L19.3461 30.6741C19.2752 30.863 19.228 31.0991 19.228 31.3352ZM24.1625 26.8257L26.0277 21.2065H26.0986L27.9401 26.8257H24.1625Z" fill="white"/></svg>