<svg width="48" height="48" viewBox="0 0 48 48" fill="none" xmlns="http://www.w3.org/2000/svg">
  <!-- Outer gear (dark) -->
  <path
    fill="#7B5FC4"
    d="M19.2 3.5h9.6l1.8 5.2 5.4-1.4 6.8 6.8-1.4 5.4 5.2 1.8v9.6l-5.2 1.8 1.4 5.4-6.8 6.8-5.4-1.4-1.8 5.2h-9.6l-1.8-5.2-5.4 1.4-6.8-6.8 1.4-5.4L3.5 27.6v-9.6l5.2-1.8-1.4-5.4 6.8-6.8 5.4 1.4L19.2 3.5z"
  />
  <!-- Outer gear (light top) -->
  <path
    fill="#A191E2"
    d="M19.2 3.5h9.6l1.8 5.2 5.4-1.4 6.8 6.8-1.4 5.4 5.2 1.8V24H3.5v-3.6l5.2-1.8-1.4-5.4 6.8-6.8 5.4 1.4L19.2 3.5z"
  />
  <!-- Rim -->
  <circle cx="24" cy="24" r="11.5" fill="#7B5FC4"/>
  <circle cx="24" cy="24" r="11.5" fill="#CE82FF" opacity=".35"/>
  <!-- Hub -->
  <circle cx="24" cy="24" r="8" fill="#F0E6FF"/>
  <circle cx="24" cy="24" r="8" fill="#fff" opacity=".55"/>
  <circle cx="24" cy="24" r="5.2" fill="#CE82FF"/>
  <circle cx="24" cy="22.8" r="5.2" fill="#E5B8FF"/>
  <!-- Cute face in hub -->
  <circle cx="21.6" cy="22.2" r="1.15" fill="#5C3D99"/>
  <circle cx="26.4" cy="22.2" r="1.15" fill="#5C3D99"/>
  <path d="M21.8 25.4c1.1 1.3 3.3 1.3 4.4 0" stroke="#5C3D99" stroke-width="1.5" stroke-linecap="round" fill="none"/>
</svg>
