<?xml version="1.0" encoding="UTF-8"?>
<!DOCTYPE svg PUBLIC "-//W3C//DTD SVG 1.1//EN" "http://www.w3.org/Graphics/SVG/1.1/DTD/svg11.dtd">
<svg xmlns="http://www.w3.org/2000/svg" version="1.1" width="32px" height="32px" style="shape-rendering:geometricPrecision; text-rendering:geometricPrecision; image-rendering:optimizeQuality; fill-rule:evenodd; clip-rule:evenodd" xmlns:xlink="http://www.w3.org/1999/xlink">
<g><path style="opacity:0.621" fill="#7d40c6" d="M 17.5,0.5 C 17.5,0.833333 17.5,1.16667 17.5,1.5C 17.7048,3.63495 17.3715,5.96828 16.5,8.5C 15.661,7.35885 14.9943,6.02552 14.5,4.5C 13.5,3.16667 12.5,3.16667 11.5,4.5C 10.4798,6.43249 10.3131,8.43249 11,10.5C 12.2917,9.20891 13.4583,9.20891 14.5,10.5C 12.9142,11.1481 11.2475,11.6481 9.5,12C 11.7078,12.1909 13.7078,12.6909 15.5,13.5C 13.8333,13.5 12.1667,13.5 10.5,13.5C 9.20895,13.7373 8.20895,13.404 7.5,12.5C 6.32159,8.54781 6.32159,4.54781 7.5,0.5C 10.8333,0.5 14.1667,0.5 17.5,0.5 Z"/></g>
<g><path style="opacity:0.66" fill="#1b1d90" d="M 17.5,1.5 C 17.5,1.16667 17.5,0.833333 17.5,0.5C 19.1667,0.5 20.8333,0.5 22.5,0.5C 22.5,4.5 22.5,8.5 22.5,12.5C 20.834,13.6664 19.1673,13.6664 17.5,12.5C 18.7927,8.70112 18.7927,5.03445 17.5,1.5 Z"/></g>
<g><path style="opacity:1" fill="#dfd0f2" d="M 16.5,8.5 C 16.5,9.83333 15.8333,10.5 14.5,10.5C 13.4583,9.20891 12.2917,9.20891 11,10.5C 10.3131,8.43249 10.4798,6.43249 11.5,4.5C 12.5,3.16667 13.5,3.16667 14.5,4.5C 14.9943,6.02552 15.661,7.35885 16.5,8.5 Z"/></g>
<g><path style="opacity:0.737" fill="#191d90" d="M 25.5,12.5 C 26.8333,12.5 28.1667,12.5 29.5,12.5C 29.5,16.5 29.5,20.5 29.5,24.5C 29.1667,24.5 28.8333,24.5 28.5,24.5C 27.5,24.5 26.5,24.5 25.5,24.5C 25.5,20.5 25.5,16.5 25.5,12.5 Z"/></g>
<g><path style="opacity:1" fill="#803ec0" d="M 17.5,1.5 C 18.7927,5.03445 18.7927,8.70112 17.5,12.5C 19.1673,13.6664 20.834,13.6664 22.5,12.5C 23.5,12.5 24.5,12.5 25.5,12.5C 25.5,16.5 25.5,20.5 25.5,24.5C 26.5,24.5 27.5,24.5 28.5,24.5C 24.3656,25.4849 20.0323,25.8182 15.5,25.5C 15.5,21.5 15.5,17.5 15.5,13.5C 13.7078,12.6909 11.7078,12.1909 9.5,12C 11.2475,11.6481 12.9142,11.1481 14.5,10.5C 15.8333,10.5 16.5,9.83333 16.5,8.5C 17.3715,5.96828 17.7048,3.63495 17.5,1.5 Z"/></g>
<g><path style="opacity:1" fill="#f49f31" d="M 10.5,13.5 C 12.1667,13.5 13.8333,13.5 15.5,13.5C 15.5,17.5 15.5,21.5 15.5,25.5C 10.9677,25.8182 6.63441,25.4849 2.5,24.5C 5.83333,24.5 9.16667,24.5 12.5,24.5C 12.9643,20.4975 12.2976,16.8309 10.5,13.5 Z"/></g>
<g><path style="opacity:1" fill="#fec723" d="M 7.5,12.5 C 8.20895,13.404 9.20895,13.7373 10.5,13.5C 12.2976,16.8309 12.9643,20.4975 12.5,24.5C 9.16667,24.5 5.83333,24.5 2.5,24.5C 2.16667,24.5 1.83333,24.5 1.5,24.5C 1.5,20.5 1.5,16.5 1.5,12.5C 3.5,12.5 5.5,12.5 7.5,12.5 Z"/></g>
<g><path style="opacity:1" fill="#ffecb5" d="M 5.5,15.5 C 6.83333,15.5 8.16667,15.5 9.5,15.5C 9.83333,18.1667 10.1667,20.8333 10.5,23.5C 8.5,23.5 6.5,23.5 4.5,23.5C 4.27863,20.7212 4.61197,18.0545 5.5,15.5 Z"/></g>
<g><path style="opacity:1" fill="#e0d2f2" d="M 18.5,15.5 C 20.1439,15.2865 21.6439,15.6198 23,16.5C 23.2387,18.7248 22.4054,19.0581 20.5,17.5C 19.1667,18.8333 19.1667,20.1667 20.5,21.5C 22.9358,20.1091 23.6025,20.6091 22.5,23C 20.8876,23.7203 19.3876,23.5536 18,22.5C 17.2967,20.0709 17.4634,17.7375 18.5,15.5 Z"/></g>
<g><path style="opacity:0.653" fill="#f8453b" d="M 1.5,24.5 C 1.83333,24.5 2.16667,24.5 2.5,24.5C 6.63441,25.4849 10.9677,25.8182 15.5,25.5C 20.0323,25.8182 24.3656,25.4849 28.5,24.5C 28.8333,24.5 29.1667,24.5 29.5,24.5C 30.2907,26.3093 30.2907,28.3093 29.5,30.5C 27.1727,30.7529 25.1727,30.0863 23.5,28.5C 22.7836,29.311 21.9503,29.9777 21,30.5C 17.1763,27.886 13.3429,27.886 9.5,30.5C 8.32791,30.0814 7.32791,29.4147 6.5,28.5C 4.80866,30.2562 2.80866,30.7562 0.5,30C 0.439355,28.1568 0.772688,26.3234 1.5,24.5 Z"/></g>
</svg>
