<svg xmlns="http://www.w3.org/2000/svg" width="32" height="32" style="shape-rendering:geometricPrecision;text-rendering:geometricPrecision;image-rendering:optimizeQuality;fill-rule:evenodd;clip-rule:evenodd"><path style="opacity:.754" fill="#fab941" d="M5.5 3.5v8h-5a40.937 40.937 0 0 1 .5-9c1.915-1.416 3.415-1.082 4.5 1z"/><path style="opacity:1" fill="#fca240" d="M30.5 11.5h-5v-8c1.085-2.082 2.585-2.416 4.5-1 .498 2.982.665 5.982.5 9z"/><path style="opacity:1" fill="#9f5f4f" d="M5.5 3.5h20v8h-5c.17-1.322-.163-2.489-1-3.5-2.867-.8-5.534-.634-8 .5-.904.709-1.237 1.709-1 3h-5v-8z"/><path style="opacity:1" fill="#f9bb41" d="M11.5 8.5h4v3c-1.333 2-1.333 4 0 6v3h-4c-.904-.709-1.237-1.709-1-3v-5c-1.915.284-3.581-.049-5-1h5c-.237-1.291.096-2.291 1-3z"/><path style="opacity:1" fill="#f79d41" d="M11.5 8.5c2.466-1.134 5.133-1.3 8-.5.837 1.011 1.17 2.178 1 3.5v10h-5c-1.599.268-2.932-.066-4-1h4v-3c1.333-2 1.333-4 0-6v-3h-4z"/><path style="opacity:.974" fill="#fedc40" d="M-.5 11.5h6c1.419.951 3.085 1.284 5 1v5h-11v-6z"/><path style="opacity:1" fill="#febe40" d="M20.5 11.5h11v6h-11v-6z"/><path style="opacity:1" fill="#655548" d="M15.5 11.5c1.333 2 1.333 4 0 6-1.333-2-1.333-4 0-6z"/><path style="opacity:.774" fill="#fcbb41" d="M.5 17.5h5v7c3.125.98 6.458 1.313 10 1v4c-4.678.166-9.345 0-14-.5-.96-3.73-1.293-7.563-1-11.5z"/><path style="opacity:1" fill="#faa040" d="M25.5 17.5h5c.294 3.937-.04 7.77-1 11.5-4.655.5-9.322.666-14 .5v-4c-3.542.313-6.875-.02-10-1h20v-7z"/><path style="opacity:1" fill="#a05f50" d="M5.5 17.5h5c-.237 1.291.096 2.291 1 3 1.068.934 2.401 1.268 4 1v3h-10v-7z"/><path style="opacity:1" fill="#874b43" d="M20.5 17.5h5v7h-10v-3h5v-4z"/></svg>