<svg width="48" height="48" viewBox="0 0 48 48" fill="none" xmlns="http://www.w3.org/2000/svg">
  <!-- Binoculars bridge -->
  <rect x="18" y="20" width="12" height="8" rx="2" fill="#1A9ED6"/>
  <rect x="18" y="20" width="12" height="4" rx="2" fill="#4CC3F0"/>
  <!-- Left barrel -->
  <rect x="4" y="12" width="18" height="24" rx="8" fill="#1CB0F6"/>
  <rect x="4" y="12" width="18" height="11" rx="8" fill="#4CC3F0"/>
  <ellipse cx="13" cy="24" rx="6.5" ry="7" fill="#163B4D"/>
  <ellipse cx="13" cy="23" rx="4.2" ry="4.5" fill="#58CC02"/>
  <ellipse cx="11.5" cy="21.5" rx="1.6" ry="2" fill="#89E219" opacity=".9"/>
  <!-- Right barrel -->
  <rect x="26" y="12" width="18" height="24" rx="8" fill="#1CB0F6"/>
  <rect x="26" y="12" width="18" height="11" rx="8" fill="#4CC3F0"/>
  <ellipse cx="35" cy="24" rx="6.5" ry="7" fill="#163B4D"/>
  <ellipse cx="35" cy="23" rx="4.2" ry="4.5" fill="#58CC02"/>
  <ellipse cx="33.5" cy="21.5" rx="1.6" ry="2" fill="#89E219" opacity=".9"/>
  <!-- Strap -->
  <path d="M10 12c2-6 10-8 14-8s12 2 14 8" stroke="#CE82FF" stroke-width="3" stroke-linecap="round" fill="none"/>
  <path d="M10 12c2-6 10-8 14-8s12 2 14 8" stroke="#E5B8FF" stroke-width="1.5" stroke-linecap="round" fill="none" opacity=".7"/>
</svg>
