<svg xmlns="http://www.w3.org/2000/svg" width="32" height="32" style="shape-rendering:geometricPrecision;text-rendering:geometricPrecision;image-rendering:optimizeQuality;fill-rule:evenodd;clip-rule:evenodd"><path style="opacity:.839" fill="#e59aad" d="M19.5 6.5c.3 4.76-1.7 6.094-6 4v-9h6v5z"/><path style="opacity:.972" fill="#a191e2" d="M19.5 6.5c4.02.146 8.02.48 12 1v16a44.293 44.293 0 0 0-2 3 30.943 30.943 0 0 0-2-2c-1.548-1.294-3.548-1.96-6-2-2.452.04-4.452.706-6 2l-2-2v-10h-8c-1.178-1.499-2.845-2.499-5-3a31.122 31.122 0 0 1 11-1c-.219 1.175.114 2.175 1 3 .607-.124.94-.457 1-1 4.3 2.094 6.3.76 6-4z"/><path style="opacity:.872" fill="#a38fe4" d="M13.5 6.5v4c-.06.543-.393.876-1 1-.886-.825-1.219-1.825-1-3a31.122 31.122 0 0 0-11 1c2.155.501 3.822 1.501 5 3-1.291-.237-2.291.096-3 1-2.203 4.109-2.203 8.109 0 12h9c1.548-.321 2.215-1.321 2-3l2 2h12c.651.59 1.318 1.257 2 2a44.293 44.293 0 0 1 2-3v6h-32v-22c4.64-.627 9.307-.96 14-1z"/><path style="opacity:1" fill="#edcd5e" d="M5.5 12.5h8v10c.215 1.679-.452 2.679-2 3-.838-5.168-3.339-6.168-7.5-3a4.932 4.932 0 0 0-.5 3h-1v-12c.709-.904 1.709-1.237 3-1z"/><path style="opacity:1" fill="#bfa5b7" d="M2.5 13.5v12c-2.203-3.891-2.203-7.891 0-12z"/><path style="opacity:1" fill="#365882" d="M6.5 14.5c3.661-.15 4.661 1.35 3 4.5a8.434 8.434 0 0 1-4 .5c-.134-1.791.2-3.458 1-5z"/><path style="opacity:1" fill="#82dce4" d="M15.5 18.5c4.055-.324 8.055.01 12 1l-6 1c-2.452-.04-4.452-.706-6-2z"/><path style="opacity:1" fill="#1f5189" d="M11.5 25.5h-8a4.932 4.932 0 0 1 .5-3c4.161-3.168 6.662-2.168 7.5 3z"/><path style="opacity:1" fill="#7beee5" d="M27.5 24.5h-12c1.548-1.294 3.548-1.96 6-2 2.452.04 4.452.706 6 2z"/></svg>