<svg viewBox="0 0 1946 1861" fill="none" xmlns="http://www.w3.org/2000/svg">
<path d="M973 1814.35C1504.78 1814.35 1935.88 1408.22 1935.88 907.24C1935.88 406.257 1504.78 0.130005 973 0.130005C441.216 0.130005 10.12 406.257 10.12 907.24C10.12 1408.22 441.216 1814.35 973 1814.35Z" fill="#53C506"/>
<path d="M255.99 970.27C176.4 942.96 105.58 892.91 83.05 806.06C68.03 748.16 78.88 687.54 101.78 633.28C125.59 576.89 163.23 524.62 206.04 481.11C287.49 398.3 423.07 315.72 543.32 354.36C617.89 378.32 660.16 440.47 682.67 510.4C867.19 442.37 1079.97 442.48 1264.4 510.79C1286.87 440.69 1329.15 378.36 1403.87 354.35C1524.13 315.7 1659.71 398.29 1741.17 481.1C1911.33 654.11 1933.43 887.91 1690.11 970.66C1712.05 1056.94 1717.2 1147.02 1709.82 1235.73C1727.6 1274.93 1740.79 1316.28 1746.73 1358.81H1767.5C1833.61 1358.81 1891.87 1389.44 1923.45 1448.44C1938.09 1475.81 1945.42 1506.8 1945.42 1537.79C1945.42 1639.79 1871.3 1716.78 1767.5 1716.78H1562.17C1265.15 1908.98 680.85 1908.98 383.83 1716.78H178.51C112.39 1716.78 54.1301 1686.14 22.5501 1627.13C7.91005 1599.77 0.579957 1568.79 0.579957 1537.8C0.569957 1435.8 74.69 1358.81 178.51 1358.81H199.27C205.21 1316.28 218.4 1274.93 236.18 1235.73C228.79 1146.89 233.96 1056.67 255.99 970.27Z" fill="#FDFEFD"/>
<path d="M1296.62 574.46C1392.29 47.59 2180.23 812.48 1632.16 938.61C1661.57 1026.96 1673.41 1128.77 1662.25 1244.08C1686.59 1294.57 1703.06 1349.36 1703.57 1405.45H1767.5C1942.54 1405.45 1942.54 1670.14 1767.5 1670.14H1548.08C1267.1 1862.27 678.9 1862.27 397.92 1670.14H178.51C3.46004 1670.14 3.46004 1405.45 178.51 1405.45H242.43C242.94 1349.36 259.41 1294.57 283.75 1244.08C272.58 1128.66 284.45 1026.75 313.93 938.35C-231.77 811.47 554.47 48.46 650.48 573.96C850.68 483.33 1096.59 483.49 1296.62 574.46Z" fill="#1E003D"/>
<path d="M1609.77 881.17C2037.07 786.67 1412.97 186.02 1353.67 603.63C1376.05 616.4 1397.66 630.42 1418.35 645.68C1457.37 426.13 1800.65 750.03 1572.27 810.93C1586.14 833.14 1598.69 856.55 1609.77 881.17Z" fill="white"/>
<path d="M337.44 881.17C-89.86 786.67 534.23 186.02 593.53 603.63C571.15 616.4 549.55 630.42 528.86 645.68C489.83 426.13 146.55 750.03 374.94 810.93C361.07 833.14 348.52 856.55 337.44 881.17Z" fill="white"/>
<path d="M794.96 1466.53H178.51C84.24 1466.53 84.25 1609.05 178.51 1609.05H1767.5C1861.75 1609.05 1861.75 1466.53 1767.5 1466.53H1152.25C1094.68 1490.73 1016.41 1490.69 973.6 1438.64C930.79 1490.69 852.52 1490.73 794.96 1466.53Z" fill="#53C506"/>
<path d="M1422.47 1670.14H523.53C773.61 1780.95 1172.39 1780.95 1422.47 1670.14Z" fill="#D9D9D9"/>
<path d="M1642.53 1405.45C1642.01 1355.9 1626.02 1307.26 1603.89 1263.24L1600.78 1246.41C1632.74 945.79 1495.56 745.24 1301.42 644.51C1102.63 541.38 843.37 541.38 644.58 644.51C450.44 745.24 313.26 945.79 345.22 1246.41L342.11 1263.24C319.98 1307.26 303.99 1355.9 303.47 1405.45H726.67C722.64 1393.67 722.56 1381.29 727.67 1368.87C776.83 1461.03 933.77 1454.45 948.7 1383.8C818.29 1291.06 799.93 1193.36 983.32 1197.52C1160.08 1201.53 1108.66 1306.03 998.67 1384.49C1014.48 1454.48 1170.54 1460.73 1219.53 1368.87C1224.64 1381.29 1224.57 1393.67 1220.54 1405.45H1642.53Z" fill="white"/>
<path d="M1288.22 1040.43C1332.74 1040.43 1368.82 1090.84 1368.82 1153.04C1368.82 1215.23 1332.74 1265.65 1288.22 1265.65C1243.71 1265.65 1207.63 1215.23 1207.63 1153.04C1207.63 1090.84 1243.71 1040.43 1288.22 1040.43Z" fill="#1E003D"/>
<path d="M658.98 1040.43C614.47 1040.43 578.39 1090.84 578.39 1153.04C578.39 1215.23 614.47 1265.65 658.98 1265.65C703.49 1265.65 739.58 1215.23 739.58 1153.04C739.58 1090.84 703.49 1040.43 658.98 1040.43Z" fill="#1E003D"/>
<path d="M1603.89 1263.24C1603.89 1263.24 1567 1411.45 1219.53 1368.87C1224.64 1381.29 1224.57 1393.67 1220.54 1405.45H1642.53C1642.01 1355.9 1626.02 1307.26 1603.89 1263.24Z" fill="#D9D9D9"/>
<path d="M343.32 1263.24C343.32 1263.24 380.21 1411.45 727.67 1368.87C722.56 1381.29 722.64 1393.67 726.67 1405.45H304.68C305.19 1355.9 321.19 1307.26 343.32 1263.24Z" fill="#D9D9D9"/>
<path d="M734.73 1466.53C734.73 1466.53 847.69 1565.24 973.6 1501.26C1099.51 1565.24 1212.47 1466.53 1212.47 1466.53H1152.25C1094.68 1490.73 1016.41 1490.69 973.6 1438.64C930.79 1490.69 852.52 1490.73 794.96 1466.53H734.73Z" fill="#328B09"/>
<path d="M374.94 810.93C330.43 799.06 307.63 777.2 300.06 751.33C299.84 750.56 299.63 749.78 299.43 749.01C253.13 577.38 386.07 477.04 386.07 477.04C221.63 552.06 63.5399 820.6 337.44 881.17C348.52 856.55 361.07 833.14 374.94 810.93Z" fill="#D9D9D9"/>
<path d="M1571.06 810.93C1615.57 799.06 1638.37 777.2 1645.94 751.33C1646.16 750.56 1646.37 749.78 1646.57 749.01C1692.87 577.38 1559.93 477.04 1559.93 477.04C1724.37 552.06 1882.46 820.6 1608.56 881.17C1597.48 856.55 1584.93 833.14 1571.06 810.93Z" fill="#D9D9D9"/>
<path d="M1256.81 1041.31C1281.73 1041.31 1301.94 1069.54 1301.94 1104.37C1301.94 1139.19 1281.73 1167.42 1256.81 1167.42C1231.89 1167.42 1211.68 1139.19 1211.68 1104.37C1211.68 1069.54 1231.89 1041.31 1256.81 1041.31Z" fill="white"/>
<path d="M631.85 1041.31C656.77 1041.31 676.97 1069.54 676.97 1104.37C676.97 1139.19 656.77 1167.42 631.85 1167.42C606.92 1167.42 586.72 1139.19 586.72 1104.37C586.72 1069.54 606.92 1041.31 631.85 1041.31Z" fill="white"/>
</svg>
